<?xml version="1.0" encoding="UTF-8" standalone="no"?>
<!-- Created with Inkscape (http://www.inkscape.org/) -->

<svg
   width="297mm"
   height="210mm"
   viewBox="0 0 1122.5197 793.70081"
   version="1.1"
   id="svg5"
   xml:space="preserve"
   inkscape:export-filename="..\..\Users\Pc\OneDrive\Escritorio\Logo_PI.png"
   inkscape:export-xdpi="393.84616"
   inkscape:export-ydpi="393.84616"
   inkscape:version="1.2.2 (732a01da63, 2022-12-09)"
   sodipodi:docname="Logo_PI.svg"
   xmlns:inkscape="http://www.inkscape.org/namespaces/inkscape"
   xmlns:sodipodi="http://sodipodi.sourceforge.net/DTD/sodipodi-0.dtd"
   xmlns="http://www.w3.org/2000/svg"
   xmlns:svg="http://www.w3.org/2000/svg"><sodipodi:namedview
     id="namedview7"
     pagecolor="#ffffff"
     bordercolor="#000000"
     borderopacity="0.25"
     inkscape:showpageshadow="2"
     inkscape:pageopacity="0.0"
     inkscape:pagecheckerboard="0"
     inkscape:deskcolor="#d1d1d1"
     inkscape:document-units="mm"
     showgrid="false"
     inkscape:zoom="1.0545536"
     inkscape:cx="491.2031"
     inkscape:cy="383.57462"
     inkscape:window-width="1350"
     inkscape:window-height="1040"
     inkscape:window-x="505"
     inkscape:window-y="59"
     inkscape:window-maximized="0"
     inkscape:current-layer="layer7" /><defs
     id="defs2"><clipPath
       clipPathUnits="userSpaceOnUse"
       id="clipPath564"><path
         id="path566"
         style="fill:#ff0000;fill-opacity:1;fill-rule:nonzero;stroke:none"
         d="M 373.0625,381.01172 V 537.30078 H 767.23828 V 381.01172 Z M 759.11719,474 c 0.12304,-0.002 0.24621,-9.8e-4 0.36914,0.004 2.67736,0.10641 5.27237,1.94209 5.84179,5.78711 0.0869,0.58666 0.1112,1.17919 0.1875,1.76562 -8.7e-4,-0.0135 -0.003,-0.0274 -0.002,-0.041 0.002,-0.0322 0.0184,0.0623 0.0254,0.0938 0.0451,0.20855 0.0998,0.41557 0.12891,0.62695 0.0504,0.36659 0.14987,0.73568 0.10937,1.10351 -0.10427,0.94737 -0.0643,1.98213 -0.53906,2.8086 -0.66287,1.15406 -1.77005,1.98336 -2.69531,2.94531 -0.15603,6.02547 -8.78128,8.99231 -12.03906,2.15039 -0.30445,-0.63939 -0.60045,-1.28527 -0.82227,-1.95898 -0.0536,-0.17284 -0.10725,-0.3465 -0.16016,-0.51954 -0.002,-0.004 -0.004,-0.008 -0.006,-0.0117 -0.0772,-0.18613 -0.15191,-0.37414 -0.22851,-0.56055 -0.0866,-0.26476 -0.20042,-0.48768 -0.36523,-0.81445 -0.13305,-0.31099 -0.28987,-0.61324 -0.39844,-0.9336 -0.72963,-2.15266 -0.52057,-4.42212 0.63476,-6.38476 0.20708,-0.29703 0.39235,-0.60994 0.6211,-0.89063 1.15139,-1.41283 2.70364,-2.31326 4.45117,-2.70898 1.20311,-1.57109 3.04105,-2.4248 4.88672,-2.46094 z m -5.8125,10.47461 c 0.004,0.0195 0.009,0.0391 0.0117,0.0586 0.008,0.0501 0.0506,0.19589 0.0391,0.14649 -0.0483,-0.20699 -0.0347,-0.1424 -0.0508,-0.20508 z m 1.73242,4.14844 c 0.042,0.0417 0.12508,0.0878 0.21875,0.13086 -0.0704,-0.043 -0.15174,-0.0891 -0.21875,-0.13086 z m -5.48242,0.2207 c 0.0157,0.0436 0.018,0.0527 0.0293,0.0781 0.003,0.007 0.0167,0.0265 0.0137,0.0195 -0.0132,-0.0329 -0.0288,-0.0652 -0.043,-0.0977 z" /></clipPath><clipPath
       clipPathUnits="userSpaceOnUse"
       id="clipPath574"><path
         id="path576"
         style="fill:#ff0000;fill-opacity:1;fill-rule:nonzero;stroke:none;stroke-width:1"
         d="m 584.03551,587.94566 -49.70799,-4.3e-4 c -0.68621,0.83628 -1.58428,1.49376 -2.36901,2.24646 -0.47609,6.00746 -8.98647,8.48987 -11.77135,1.4773 -0.26026,-0.65534 -0.51198,-1.31669 -0.69039,-2.00169 -0.0426,-0.17555 -0.0851,-0.35193 -0.12702,-0.52764 -0.002,-0.004 -0.003,-0.008 -0.005,-0.012 -0.0648,-0.19014 -0.1269,-0.382 -0.191,-0.57239 -0.0519,-0.20077 -0.12744,-0.39223 -0.21745,-0.60912 l -63.36833,-9.9e-4 -5.5e-4,85.39198 c 0.18667,0.0224 0.37752,0.0247 0.56233,0.0538 1.75724,0.27606 3.08514,1.77601 4.62638,2.6641 0.44571,0.49048 0.90733,0.96604 1.36132,1.44949 1.61306,-1.96514 3.16954,-3.98036 4.73091,-5.9761 1.09399,-1.55892 2.24412,-3.07736 3.28164,-4.67443 1.72612,-2.65702 3.26612,-5.41791 4.67707,-8.24442 0.77754,-5.27672 1.48747,-10.56344 2.23489,-15.84357 1.06369,-7.09149 2.05636,-14.19561 2.85147,-21.32255 0.54148,-4.10526 0.92422,-8.22792 1.48556,-12.33034 0.3492,-2.64641 0.69818,-5.2872 1.18242,-7.91316 0.63011,-2.91601 2.01915,-8.16149 5.1868,-9.18344 1.43567,-0.46317 2.94304,-0.51181 4.46879,-0.4572 1.52574,0.0546 3.0698,0.21226 4.5775,0.16329 1.38174,1.47428 2.86997,2.85631 4.14435,4.42432 0.32055,0.39442 0.40477,0.93075 0.59184,1.40332 0.7046,1.77994 1.16768,3.64555 1.63769,5.49701 0.76107,2.88248 1.67441,5.72648 2.76325,8.50179 0.87376,2.03064 1.76176,4.05543 2.58537,6.107 0.75948,1.90379 1.47064,3.8262 2.20302,5.74076 0.76145,1.91799 1.47708,3.85352 2.14063,5.80759 0.24841,0.85645 0.5758,1.66529 0.98918,2.43944 0.79521,1.33452 1.53858,2.69959 2.25299,4.07895 0.74946,1.46561 1.43752,2.9549 2.02191,4.49405 0.0911,0.26736 0.18743,0.53304 0.27343,0.80209 0.25715,0.80413 0.23058,0.78862 0.44295,1.59625 0.0123,0.0469 0.0227,0.0562 0.0641,0.2169 l 0.002,0.002 c 0.072,-0.0508 0.093,0.16452 0.13452,0.24835 0.14042,0.28323 0.27265,0.56879 0.41104,0.85302 0.28148,0.57816 0.57625,1.14589 0.88835,1.70791 0.68681,1.34803 1.4399,2.65925 2.12988,4.00537 0.39734,0.8661 0.82957,1.84256 1.20019,2.6413 0.0646,0.1313 0.13082,0.26203 0.19302,0.39451 0.31512,0.67151 0.60481,1.34891 0.88777,2.03454 0.0241,0.0585 -0.0447,-0.12035 -0.0661,-0.17984 0.05,0.11169 0.10299,0.22264 0.15068,0.33532 0.33467,0.79097 0.58001,1.57893 0.80304,2.40919 0.083,0.30773 0.096,0.44137 0.0754,0.25472 0.23407,0.76546 0.52305,1.51201 0.78217,2.2691 0.36761,1.02933 0.68371,2.07338 0.97868,3.12543 0.19838,0.82507 0.68146,1.92284 1.11595,3.21745 0.30139,0.981 0.66866,1.92832 1.09942,2.85658 0.39143,0.90642 0.83702,1.78776 1.30755,2.6553 0.46076,0.79125 0.91891,1.58646 1.37357,2.38133 0.49307,0.85353 0.92345,1.73842 1.33141,2.63515 0.30204,0.66347 0.13284,0.45495 0.30726,0.6671 0.41681,0.69585 0.88012,1.369 1.3232,2.04979 0.72501,1.10644 1.3914,2.24728 2.08628,3.37297 0.60383,0.91814 1.17411,1.85831 1.73782,2.80132 0.54051,0.85107 1.00021,1.74543 1.44054,2.65121 0.34883,0.70771 0.61987,1.44593 0.87745,2.19045 0.008,0.0225 0.27143,0.9262 0.35113,0.97869 0.69405,1.60191 1.58477,3.1057 2.42602,4.63269 0.73011,1.28193 1.46635,2.56001 2.24262,3.81428 0.72916,1.08806 1.40949,2.20389 2.0635,3.3384 0.79387,1.50054 1.64599,2.96895 2.46208,4.45676 0.52017,1.02954 1.06947,2.03993 1.65121,3.03498 0.59424,1.06312 1.18431,2.12082 1.70948,3.22025 0.4673,1.20828 0.92972,2.41641 1.42265,3.61458 0.80585,1.64267 1.6125,3.28207 2.38469,4.94135 0.63911,1.35742 1.20397,2.74954 1.85926,4.09934 0.43378,0.99197 0.94518,1.94155 1.42852,2.90874 2.6872,5.37706 0.39925,9.97145 -3.3032,12.09484 l 25.84126,2.2e-4 z m -59.31824,1.35849 c 0.0384,0.044 0.11636,0.0946 0.20472,0.14283 -0.0658,-0.0469 -0.1421,-0.0974 -0.20472,-0.14283 z m -5.31959,-0.0846 c 0.0127,0.0444 0.0146,0.0536 0.0241,0.0796 0.003,0.007 0.0147,0.0274 0.0122,0.0202 -0.011,-0.0336 -0.0244,-0.0667 -0.0363,-0.0999 z m -14.45892,65.26564 c -0.051,0.0682 -0.12515,0.20393 -0.21414,0.34763 0.035,-0.0355 0.0671,-0.0751 0.10264,-0.10952 0.0624,-0.0607 0.13003,-0.2212 0.11706,-0.23583 -7.8e-4,-0.002 -0.005,-3e-4 -0.006,-0.002 z m 23.44136,49.51147 c -0.6202,0.94214 -1.31864,1.83241 -2.14111,2.5921 -1.6774,1.54939 -3.79344,2.07838 -5.90303,2.53438 -2.38476,0.52387 -4.79083,0.96561 -7.14048,1.63582 -2.3287,0.76239 -4.65984,1.51239 -6.91486,2.48015 -1.30578,0.46449 -2.17573,0.78885 -3.52418,1.19418 -2.6406,0.79375 -5.34984,1.30306 -8.05507,1.818 -2.12206,0.36932 -3.0083,0.56758 -5.17223,0.76889 -1.37831,0.12821 -2.76226,0.17319 -4.14749,0.16268 1.03908,1.91168 2.0673,3.82948 3.06286,5.76474 1.11657,2.16712 0.5766,1.11107 1.61569,3.16596 4.67484,9.24489 -5.27814,16.28832 -12.0946,12.19997 -0.013,1.08406 -0.0407,2.13347 -0.0211,3.23426 l 71.30818,-4.9e-4 c -1.4291,-0.8847 -2.71889,-2.23779 -3.67607,-4.20963 -0.50647,-1.04342 -1.05603,-2.0643 -1.53271,-3.12207 -0.67204,-1.41368 -1.29352,-2.85113 -1.94463,-4.27444 -0.89113,-1.91485 -1.85843,-3.79043 -2.72209,-5.71777 -0.11247,-0.27646 -0.22586,-0.55283 -0.33834,-0.82929 -0.0445,-0.11858 -0.0851,-0.24032 -0.13241,-0.35776 -0.22759,-0.56464 -0.56635,-1.20307 -0.70071,-1.81058 -0.003,-0.0131 0.0178,0.0208 0.0268,0.0309 0.11693,0.17183 0.0937,0.14288 -0.0812,-0.18073 -0.23575,-0.43578 -0.49394,-0.85617 -0.72674,-1.2937 -0.0269,-0.0506 -0.0515,-0.10375 -0.077,-0.15503 -0.6764,-1.16056 -1.32493,-2.33557 -1.9315,-3.53428 -0.72025,-1.37357 -1.54923,-2.68847 -2.24752,-4.07471 -0.55049,-0.96743 -1.15488,-1.90116 -1.7646,-2.8322 -0.93339,-1.5091 -1.81823,-3.04418 -2.69401,-4.58745 -0.11021,-0.20002 -0.21923,-0.40198 -0.32976,-0.60187 z m -71.19155,-0.82417 c -0.53466,0.10489 -1.06722,0.21014 -1.60016,0.26798 l -7.9e-4,0.15842 c 0.31578,0.11109 0.63018,0.22477 0.94319,0.34174 0.0335,-0.0374 0.0712,-0.0719 0.10454,-0.10941 0.26229,-0.2952 0.38175,-0.45074 0.5534,-0.65872 z m 27.69263,4.77204 c -0.12299,0.18577 -0.25612,0.36824 -0.36608,0.56189 -0.0719,0.12666 0.19998,-0.21911 0.27098,-0.34631 0.0382,-0.0685 0.0601,-0.14507 0.0951,-0.21558 z m -29.29321,27.48687 -3.3e-4,6.11492 12.42936,2.4e-4 c -0.77471,-1.02527 -1.54351,-2.05453 -2.28676,-3.1028 -2.27389,-0.17994 -5.10564,-0.38793 -8.96968,-0.49199 -0.91242,-0.0246 -0.78474,-1.64924 -1.15757,-2.48237 -0.005,-0.0122 -0.01,-0.0258 -0.015,-0.038 z" /></clipPath><clipPath
       clipPathUnits="userSpaceOnUse"
       id="clipPath19854"><rect
         style="opacity:1;fill:none;fill-opacity:1;stroke:#000000;stroke-width:10.8107;stroke-linecap:round;stroke-linejoin:round;stroke-dasharray:none"
         id="rect19856"
         width="251.73853"
         height="160.31535"
         x="169.46111"
         y="741.15027"
         transform="matrix(0.7139345,-0.70021249,0.8110895,0.58492207,0,0)" /></clipPath><clipPath
       clipPathUnits="userSpaceOnUse"
       id="clipPath19858"><rect
         style="opacity:1;fill:none;fill-opacity:1;stroke:#000000;stroke-width:10.8107;stroke-linecap:round;stroke-linejoin:round;stroke-dasharray:none"
         id="rect19860"
         width="251.73853"
         height="160.31535"
         x="169.46111"
         y="741.15027"
         transform="matrix(0.7139345,-0.70021249,0.8110895,0.58492207,0,0)" /></clipPath><clipPath
       clipPathUnits="userSpaceOnUse"
       id="clipPath19862"><rect
         style="opacity:1;fill:none;fill-opacity:1;stroke:#000000;stroke-width:10.8107;stroke-linecap:round;stroke-linejoin:round;stroke-dasharray:none"
         id="rect19864"
         width="251.73853"
         height="160.31535"
         x="169.46111"
         y="741.15027"
         transform="matrix(0.7139345,-0.70021249,0.8110895,0.58492207,0,0)" /></clipPath><clipPath
       clipPathUnits="userSpaceOnUse"
       id="clipPath19866"><rect
         style="opacity:1;fill:none;fill-opacity:1;stroke:#000000;stroke-width:10.8107;stroke-linecap:round;stroke-linejoin:round;stroke-dasharray:none"
         id="rect19868"
         width="251.73853"
         height="160.31535"
         x="169.46111"
         y="741.15027"
         transform="matrix(0.7139345,-0.70021249,0.8110895,0.58492207,0,0)" /></clipPath><clipPath
       clipPathUnits="userSpaceOnUse"
       id="clipPath19870"><rect
         style="opacity:1;fill:none;fill-opacity:1;stroke:#000000;stroke-width:10.8107;stroke-linecap:round;stroke-linejoin:round;stroke-dasharray:none"
         id="rect19872"
         width="251.73853"
         height="160.31535"
         x="169.46111"
         y="741.15027"
         transform="matrix(0.7139345,-0.70021249,0.8110895,0.58492207,0,0)" /></clipPath></defs><g
     inkscape:groupmode="layer"
     id="layer2"
     inkscape:label="Idea"><text
       xml:space="preserve"
       style="font-size:192px;font-family:'appo paint';-inkscape-font-specification:'appo paint';fill:#ffffff;fill-opacity:1;stroke-width:1.57984;stroke-linecap:round;stroke-linejoin:round"
       x="373.06235"
       y="536.14819"
       id="text236"
       clip-path="url(#clipPath564)"
       transform="translate(8.3717204,-26.081759)"><tspan
         sodipodi:role="line"
         id="tspan234"
         x="373.06235"
         y="536.14819">IDEA</tspan></text></g><g
     inkscape:groupmode="layer"
     id="layer4"
     inkscape:label="Palito"><text
       xml:space="preserve"
       style="font-style:normal;font-variant:normal;font-weight:normal;font-stretch:normal;font-size:192px;font-family:'appo paint';-inkscape-font-specification:'appo paint';fill:#ffffff;fill-opacity:1;stroke-width:1.57984;stroke-linecap:round;stroke-linejoin:round"
       x="452.3241"
       y="741.54602"
       id="text438"
       clip-path="url(#clipPath574)"
       transform="matrix(1.0297243,-0.05737489,0.0556324,0.9984513,163.52173,-153.589)"><tspan
         sodipodi:role="line"
         id="tspan436"
         x="452.3241"
         y="741.54602">A</tspan></text></g><g
     inkscape:groupmode="layer"
     id="layer7"
     inkscape:label="Puntero1"
     transform="translate(-124.22318,-33.189401)"><g
       inkscape:groupmode="layer"
       id="layer8"
       inkscape:label="Puntero2" /></g><g
     inkscape:label="Pixelated"
     inkscape:groupmode="layer"
     id="layer1"
     transform="translate(77.781149,16.092652)"><text
       xml:space="preserve"
       style="font-style:normal;font-variant:normal;font-weight:normal;font-stretch:normal;font-size:192px;font-family:'Aldo the Apache';-inkscape-font-specification:'Aldo the Apache';fill:#ffffff;fill-opacity:1;stroke-width:1.57984;stroke-linecap:round;stroke-linejoin:round"
       x="114.22963"
       y="325.99188"
       id="text398-1"><tspan
         sodipodi:role="line"
         id="tspan396-4"
         x="114.22963"
         y="325.99188">pixelated</tspan></text></g></svg>
